GREEK and ENGLISH Languages

To view the subtitles or change languages on PC, download and install DivX7 player 
http://www.divx.com/en/win

To view the movie on TV, just burn the video on a dvd disk.

Movie Sample and Trailer Included.

-------------------------------------------------------------------------------

Madagascar: Escape 2 Africa (2008)  
http://www.imdb.com/title/tt0479952/

Plot: Hoping to return to New York via a penguin-piloted plane, the four animal friends crash land in the plains of Africa.

--------------------------------------------------------------------------------

Format                           : DivX
Format/Info                      : Hack of AVI
File size                        : 692 MiB
Duration                         : 1h 25mn
Overall bit rate                 : 1 129 Kbps

Video
ID                               : 0
Format                           : MPEG-4 Visual
Format settings, BVOP            : Yes
Format settings, QPel            : No
Format settings, GMC             : No warppoints
Format settings, Matrix          : Default (H.263)
Muxing mode                      : Packed bitstream
Codec ID                         : DX50
Codec ID/Hint                    : DivX 5
Duration                         : 1h 25mn
Bit rate                         : 858 Kbps
Width                            : 720 pixels
Height                           : 576 pixels
Display aspect ratio             : 16:9
Frame rate                       : 25.000 fps
Standard                         : PAL
Resolution                       : 24 bits
Colorimetry                      : 4:2:0
Scan type                        : Progressive
Bits/(Pixel*Frame)               : 0.083
Stream size                      : 526 MiB (76%)
Title                            : Video 
Writing library                  : DivX 2151

Audio #1
ID                               : 1
Format                           : MPEG Audio
Format version                   : Version 1
Format profile                   : Layer 3
Codec ID                         : 55
Codec ID/Hint                    : MP3
Duration                         : 1h 25mn
Bit rate mode                    : Constant
Bit rate                         : 128 Kbps
Channel(s)                       : 2 channels
Sampling rate                    : 48.0 KHz
Resolution                       : 16 bits
Stream size                      : 78.5 MiB (11%)
Alignment                        : Split accross interleaves
Interleave, duration             : 40 ms (1.00 video frame)
Interleave, preload duration     : 500 ms
Title                            : Audio En

Audio #2
ID                               : 2
Format                           : MPEG Audio
Format version                   : Version 1
Format profile                   : Layer 3
Codec ID                         : 55
Codec ID/Hint                    : MP3
Duration                         : 1h 25mn
Bit rate mode                    : Constant
Bit rate                         : 128 Kbps
Channel(s)                       : 2 channels
Sampling rate                    : 48.0 KHz
Resolution                       : 16 bits
Stream size                      : 78.5 MiB (11%)
Alignment                        : Split accross interleaves
Interleave, duration             : 40 ms (1.00 video frame)
Interleave, preload duration     : 500 ms
Title                            : Audio Gr

-------------------------------------------------------------------------------
 
http://thepiratebay.org/user/OmifastGR

!